<?xml version="1.0" encoding="UTF-8" standalone="no"?>
<!DOCTYPE svg PUBLIC "-//W3C//DTD SVG 20010904//EN"
              "http://www.w3.org/TR/2001/REC-SVG-20010904/DTD/svg10.dtd">

<svg xmlns="http://www.w3.org/2000/svg"
     width="0.288888in" height="0.288888in"
     viewBox="0 0 323 352">
  <path id="Seleção"
        fill="black" stroke="black" stroke-width="1"
        d="M 59.00,53.40
           C 59.00,53.40 124.00,27.00 124.00,27.00
             124.00,27.00 150.00,16.42 150.00,16.42
             150.00,16.42 163.00,12.71 163.00,12.71
             163.00,12.71 176.00,17.60 176.00,17.60
             176.00,17.60 200.00,27.20 200.00,27.20
             200.00,27.20 265.00,53.00 265.00,53.00
             265.00,53.00 301.00,67.00 301.00,67.00
             298.17,71.22 288.78,74.12 284.00,76.31
             284.00,76.31 243.00,94.77 243.00,94.77
             243.00,94.77 184.00,121.23 184.00,121.23
             178.82,123.59 163.90,131.35 159.00,130.57
             156.59,130.19 146.86,125.59 144.00,124.30
             144.00,124.30 115.00,111.42 115.00,111.42
             115.00,111.42 53.00,83.86 53.00,83.86
             53.00,83.86 21.00,69.00 21.00,69.00
             21.00,69.00 59.00,53.40 59.00,53.40 Z
           M 53.00,98.74
           C 53.00,98.74 124.00,132.78 124.00,132.78
             124.00,132.78 146.00,143.75 146.00,143.75
             146.00,143.75 154.98,149.27 154.98,149.27
             154.98,149.27 156.00,157.00 156.00,157.00
             156.00,157.00 156.00,340.00 156.00,340.00
             156.00,340.00 116.00,318.86 116.00,318.86
             116.00,318.86 46.00,280.75 46.00,280.75
             46.00,280.75 25.00,269.25 25.00,269.25
             25.00,269.25 15.02,262.62 15.02,262.62
             15.02,262.62 14.00,255.00 14.00,255.00
             14.00,255.00 14.00,179.00 14.00,179.00
             14.00,179.00 13.00,164.00 13.00,164.00
             13.00,164.00 13.00,80.00 13.00,80.00
             13.00,80.00 53.00,98.74 53.00,98.74 Z
           M 168.00,155.00
           C 168.00,155.00 168.99,147.63 168.99,147.63
             168.99,147.63 179.00,141.86 179.00,141.86
             179.00,141.86 199.00,132.25 199.00,132.25
             199.00,132.25 269.00,98.75 269.00,98.75
             269.00,98.75 292.00,87.75 292.00,87.75
             292.00,87.75 310.00,80.00 310.00,80.00
             310.00,80.00 310.00,255.00 310.00,255.00
             310.00,255.00 308.98,262.61 308.98,262.61
             308.98,262.61 300.00,268.42 300.00,268.42
             300.00,268.42 278.00,280.42 278.00,280.42
             278.00,280.42 208.00,318.31 208.00,318.31
             208.00,318.31 168.00,339.00 168.00,339.00
             168.00,339.00 168.00,155.00 168.00,155.00 Z" />
</svg>
